{"title":"Childs.Pose.2013.DVDRip.XviD.AC3.HORiZON-ArtSubs","uid":9260352,"size":1568284672,"categoryP":"video","categoryS":"movies","magnet":"?xt=urn:btih:8310b345ce22fdb18efa523bea9bfe1b468c255e&amp;dn=Childs.Pose.2013.DVDRip.XviD.AC3.HORiZON-ArtSubs&amp;tr=udp%3A%2F%2Ftracker.openbittorrent.com%3A80&amp;tr=udp%3A%2F%2Fopen.demonii.com%3A1337&amp;tr=udp%3A%2F%2Ftracker.coppersurfer.tk%3A6969&amp;tr=udp%3A%2F%2Fexodus.desync.com%3A6969","seeders":6,"leechers":0,"uploader":"lletaif","files":1,"time":1385615100,"description":"Title:\nChilds Pose Aka Pozitia Copilului\n\n\nCountry:\nRomania/2013\n\n\nLanguage:\nRomanian\n\n\nIMDB: &lt;a href=&quot;\nhttp://www.imdb.com/title/tt2187115/?ref_=fn_al_tt_2&quot; rel=&quot;nofollow&quot; target=&quot;_NEW&quot;&gt;\nhttp://www.imdb.com/title/tt2187115/?ref_=fn_al_tt_2&lt;/a&gt;\n\n\nSYNOPSIS:\nSeeing a way to reassert control over her adult son's life when he faces manslaughter charges, an affluent Romanian woman sets out on a campaign of emotional and social manipulation to keep him out of prison, navigating the waters of power, corruption and influence. Child's Pose is based on the sense of loss of parents who have to send their children away-physically and psychologically. The parent-child relationship is re-assessed through a son in his 30s that wants to escape from his mother, who in turn wants to keep her adult son by her side. The mother's character is quite familiar, but this film is unique in that the director delicately portrays how the controlling mother wants to deny that her son is destined to leave her by following the characters' emotional flows and gazing at their twisted desires. Luminita Gheorghiu turns in an extraordinary performance in playing a mother struggling to &quot;save&quot; her son. Heading to the conclusion, the film shows that the unhealthy mother-son relationship is not that simple when it comes to matters of humane duty. \n\n\nTRIVIA:\n\nOfficial submission of Romania to the Oscars 2014 best foreign language film category. \n\n\nWon Golden Bear in Berlin International Film Festival 2013.\n\n\n\n\n\n\nMedia Info:\n\nGeneral\nComplete name                            : Childs.Pose.2013.DVDRip.XviD.AC3.HORiZON-ArtSubs\nFormat                                   : AVI\nFormat/Info                              : Audio Video Interleave\nFile size                                : 1.46 GiB\nDuration                                 : 1h 47mn\nOverall bit rate                         : 1 943 Kbps\nWriting application                      : VirtualDubMod 1.5.10.3 | www.virtualdub-fr.org || (build 2550/release)\nWriting library                          : VirtualDubMod build 2550/release\n\nVideo\nID                                       : 0\nFormat                                   : MPEG-4 Visual\nFormat profile                           : Advanced Simple@L5\nFormat settings, BVOP                    : 1\nFormat settings, QPel                    : No\nFormat settings, GMC                     : No warppoints\nFormat settings, Matrix                  : Default (MPEG)\nCodec ID                                 : XVID\nCodec ID/Hint                            : XviD\nDuration                                 : 1h 47mn\nBit rate                                 : 1 485 Kbps\nWidth                                    : 720 pixels\nHeight                                   : 304 pixels\nDisplay aspect ratio                     : 2.35:1\nFrame rate                               : 25.000 fps\nColor space                              : YUV\nChroma subsampling                       : 4:2:0\nBit depth                                : 8 bits\nScan type                                : Progressive\nCompression mode                         : Lossy\nBits/(Pixel*Frame)                       : 0.271\nStream size                              : 1.12 GiB (76%)\nWriting library                          : XviD 1.2.1 (UTC 2008-12-04)\n\nAudio\nID                                       : 1\nFormat                                   : AC-3\nFormat/Info                              : Audio Coding 3\nMode extension                           : CM (complete main)\nFormat settings, Endianness              : Big\nCodec ID                                 : 2000\nDuration                                 : 1h 47mn\nBit rate mode                            : Constant\nBit rate                                 : 448 Kbps\nChannel(s)                               : 6 channels\nChannel positions                        : Front: L C R, Side: L R, LFE\nSampling rate                            : 48.0 KHz\nBit depth                                : 16 bits\nCompression mode                         : Lossy\nStream size                              : 345 MiB (23%)\nAlignment                                : Split accross interleaves\nInterleave, duration                     : 40 ms (1.00 video frame)\nInterleave, preload duration             : 500 ms\n\n","torrent":{"xt":"urn:btih:8310b345ce22fdb18efa523bea9bfe1b468c255e","amp;dn":"Childs.Pose.2013.DVDRip.XviD.AC3.HORiZON-ArtSubs","amp;tr":["udp%3A%2F%2Ftracker.openbittorrent.com%3A80","udp%3A%2F%2Fopen.demonii.com%3A1337","udp%3A%2F%2Ftracker.coppersurfer.tk%3A6969","udp%3A%2F%2Fexodus.desync.com%3A6969"],"infoHash":"8310b345ce22fdb18efa523bea9bfe1b468c255e","infoHashBuffer":{"type":"Buffer","data":[131,16,179,69,206,34,253,177,142,250,82,59,234,155,254,27,70,140,37,94]},"announce":[],"urlList":[]}}